<svg xmlns="http://www.w3.org/2000/svg" viewBox="0 0 384 512" fill="#dc2626">
<path d="M0 64C0 28.7 28.7 0 64 0H224V128c0 17.7 14.3 32 32 32H384V448c0 35.3-28.7 64-64 64H64c-35.3 0-64-28.7-64-64V64zm384 64H256V0L384 128zM112 256h48c8.8 0 16 7.2 16 16s-7.2 16-16 16H112v32h48c8.8 0 16 7.2 16 16s-7.2 16-16 16H112v48c0 8.8-7.2 16-16 16s-16-7.2-16-16V256c0-8.8 7.2-16 16-16zm112 0h24c20.1 0 36.4 16.3 36.4 36.4c0 9.6-3.7 18.3-9.8 24.8c8.4 7.1 13.8 17.7 13.8 29.6c0 21.3-17.3 38.6-38.6 38.6H224c-8.8 0-16-7.2-16-16V272c0-8.8 7.2-16 16-16zm24 32h-8v24h8c4.4 0 8-3.6 8-8s-3.6-8-8-8zm-8 56h12.2c5.6 0 10.2-4.6 10.2-10.2c0-5.6-4.6-10.2-10.2-10.2H240v20.4zm72-88h48c8.8 0 16 7.2 16 16s-7.2 16-16 16H312v64c0 8.8-7.2 16-16 16s-16-7.2-16-16V272c0-8.8 7.2-16 16-16z"/>
</svg>
