<?xml version="1.0" encoding="UTF-8"?>
<svg id="_Слой_2" data-name="Слой 2" xmlns="http://www.w3.org/2000/svg" viewBox="0 0 1851.3 590.02">
  <defs>
    <style>
      .cls-1 {
        fill: #fff;
      }

      .cls-2 {
        fill: #dd0b0b;
      }

      .cls-3 {
        fill: #666;
      }
    </style>
  </defs>
  <g id="_Слой_1-2" data-name="Слой 1">
    <g>
      <path class="cls-1" d="M1102.12,139.13c-.66-6.65-3.5-11.82-8.5-15.51-5-3.69-11.8-5.52-20.38-5.52-5.83,0-10.75,.81-14.76,2.43-4.01,1.62-7.09,3.86-9.2,6.72-2.12,2.86-3.18,6.1-3.18,9.74-.11,3.02,.54,5.66,1.94,7.91,1.4,2.25,3.34,4.19,5.82,5.82,2.48,1.62,5.33,3.02,8.58,4.21,3.25,1.18,6.71,2.18,10.4,3l15.18,3.63c7.36,1.64,14.13,3.85,20.29,6.6,6.15,2.75,11.49,6.13,16,10.15,4.51,4.01,8.01,8.74,10.51,14.19s3.78,11.68,3.84,18.72c-.05,10.35-2.68,19.29-7.88,26.86-5.19,7.56-12.67,13.42-22.43,17.57-9.77,4.15-21.52,6.23-35.27,6.23s-25.5-2.1-35.59-6.27c-10.09-4.18-17.95-10.38-23.59-18.61-5.64-8.22-8.6-18.41-8.87-30.56h34.57c.38,5.67,2.01,10.39,4.9,14.15,2.9,3.77,6.77,6.6,11.63,8.49,4.87,1.91,10.39,2.86,16.54,2.86s11.32-.89,15.8-2.64c4.48-1.76,7.95-4.2,10.43-7.34,2.48-3.13,3.72-6.73,3.72-10.8,0-3.8-1.12-6.99-3.35-9.58-2.22-2.58-5.47-4.78-9.72-6.6-4.27-1.81-9.48-3.47-15.64-4.95l-18.4-4.61c-14.24-3.47-25.5-8.88-33.75-16.26-8.25-7.36-12.35-17.29-12.28-29.77-.06-10.23,2.68-19.16,8.21-26.81,5.52-7.65,13.13-13.61,22.81-17.9,9.67-4.29,20.67-6.44,33-6.44s23.49,2.15,32.87,6.44c9.38,4.29,16.68,10.25,21.9,17.9,5.22,7.65,7.91,16.5,8.08,26.56h-34.23Z"/>
      <path class="cls-1" d="M1219.67,261.97c-13.03,0-24.24-2.66-33.62-7.97-9.38-5.31-16.59-12.84-21.65-22.6-5.06-9.77-7.59-21.32-7.59-34.69s2.53-24.46,7.59-34.32c5.06-9.84,12.19-17.51,21.41-23.01,9.21-5.5,20.03-8.25,32.46-8.25,8.35,0,16.15,1.33,23.39,3.99,7.23,2.68,13.55,6.67,18.96,12.01,5.42,5.33,9.64,12.03,12.66,20.08,3.02,8.06,4.54,17.48,4.54,28.26v9.65h-106.99v-21.78h73.91c0-5.06-1.1-9.55-3.3-13.44-2.2-3.91-5.24-6.97-9.11-9.2-3.88-2.23-8.38-3.34-13.49-3.34s-10.05,1.22-14.15,3.67c-4.1,2.44-7.3,5.72-9.61,9.82-2.32,4.1-3.5,8.65-3.55,13.64v20.71c0,6.27,1.17,11.68,3.51,16.25,2.34,4.57,5.65,8.09,9.94,10.56,4.29,2.48,9.38,3.72,15.27,3.72,3.9,0,7.48-.55,10.73-1.65,3.23-1.1,6.02-2.75,8.32-4.95,2.32-2.19,4.08-4.89,5.28-8.08l32.5,2.15c-1.64,7.81-5.02,14.61-10.1,20.42-5.09,5.79-11.63,10.3-19.63,13.53-8.01,3.21-17.23,4.83-27.68,4.83Z"/>
      <path class="cls-1" d="M1300.75,259.49v-126.71h34.07v22.11h1.32c2.31-7.87,6.18-13.82,11.63-17.87,5.45-4.04,11.72-6.06,18.81-6.06,1.76,0,3.66,.12,5.69,.33,2.04,.22,3.82,.53,5.36,.91v31.19c-1.64-.5-3.93-.94-6.84-1.32-2.92-.39-5.58-.58-8.01-.58-5.17,0-9.78,1.12-13.81,3.34-4.05,2.23-7.24,5.32-9.58,9.28-2.34,3.96-3.5,8.52-3.5,13.7v71.69h-35.15Z"/>
      <path class="cls-1" d="M1517.79,132.78l-44.29,126.71h-39.6l-44.29-126.71h37.12l26.32,90.66h1.32l26.23-90.66h37.2Z"/>
      <path class="cls-1" d="M1553.43,116.45c-5.23,0-9.69-1.75-13.41-5.24-3.71-3.5-5.56-7.69-5.56-12.58s1.85-9.01,5.56-12.5c3.72-3.5,8.19-5.25,13.41-5.25s9.69,1.75,13.4,5.25c3.71,3.49,5.56,7.65,5.56,12.5s-1.85,9.08-5.56,12.58c-3.71,3.49-8.19,5.24-13.4,5.24Zm-17.66,143.04v-126.71h35.15v126.71h-35.15Z"/>
      <path class="cls-1" d="M1656.21,261.97c-12.98,0-24.13-2.77-33.45-8.29-9.32-5.53-16.47-13.21-21.45-23.06-4.97-9.84-7.46-21.17-7.46-33.99s2.51-24.37,7.54-34.19c5.04-9.82,12.19-17.49,21.49-23.01,9.29-5.53,20.34-8.29,33.16-8.29,11.05,0,20.73,2,29.04,6.02,8.3,4.01,14.88,9.65,19.72,16.91,4.84,7.26,7.5,15.78,8,25.58h-33.16c-.94-6.33-3.4-11.43-7.39-15.31-3.99-3.88-9.2-5.82-15.64-5.82-5.45,0-10.19,1.48-14.23,4.41-4.04,2.94-7.19,7.22-9.44,12.83-2.25,5.61-3.38,12.4-3.38,20.37s1.12,14.96,3.34,20.63c2.22,5.67,5.37,9.98,9.45,12.95,4.07,2.97,8.82,4.46,14.27,4.46,4.01,0,7.63-.82,10.85-2.48,3.21-1.64,5.88-4.06,8-7.22,2.12-3.16,3.51-6.97,4.17-11.42h33.16c-.55,9.67-3.17,18.18-7.88,25.53-4.7,7.34-11.18,13.07-19.43,17.19-8.24,4.13-18.01,6.2-29.28,6.2Z"/>
      <path class="cls-1" d="M1793.14,261.97c-13.03,0-24.24-2.66-33.62-7.97-9.38-5.31-16.59-12.84-21.65-22.6-5.06-9.77-7.59-21.32-7.59-34.69s2.53-24.46,7.59-34.32c5.06-9.84,12.19-17.51,21.41-23.01,9.21-5.5,20.03-8.25,32.46-8.25,8.35,0,16.15,1.33,23.39,3.99,7.23,2.68,13.55,6.67,18.96,12.01,5.42,5.33,9.64,12.03,12.66,20.08,3.02,8.06,4.54,17.48,4.54,28.26v9.65h-106.99v-21.78h73.91c0-5.06-1.1-9.55-3.3-13.44-2.2-3.91-5.24-6.97-9.11-9.2-3.88-2.23-8.38-3.34-13.49-3.34s-10.05,1.22-14.15,3.67c-4.1,2.44-7.3,5.72-9.61,9.82-2.32,4.1-3.5,8.65-3.55,13.64v20.71c0,6.27,1.17,11.68,3.51,16.25,2.34,4.57,5.65,8.09,9.94,10.56,4.29,2.48,9.38,3.72,15.27,3.72,3.9,0,7.48-.55,10.73-1.65,3.23-1.1,6.02-2.75,8.32-4.95,2.32-2.19,4.08-4.89,5.28-8.08l32.5,2.15c-1.64,7.81-5.02,14.61-10.1,20.42-5.09,5.79-11.63,10.3-19.63,13.53-8.01,3.21-17.23,4.83-27.68,4.83Z"/>
      <path class="cls-1" d="M1135.11,382c-1.54-5.61-3.79-10.87-6.76-15.79-2.96-4.93-6.64-9.24-11.01-12.96-4.37-3.71-9.4-6.61-15.1-8.7-5.69-2.09-12.03-3.13-19.01-3.13-11.01,0-20.85,2.86-29.54,8.58-8.68,5.72-15.54,13.97-20.58,24.75-5.04,10.78-7.54,23.76-7.54,38.94s2.53,28.07,7.59,38.85c5.06,10.79,12,19.05,20.83,24.79,8.83,5.75,18.93,8.62,30.31,8.62,10.4,0,19.59-2.31,27.55-6.92,7.98-4.63,14.2-11.22,18.69-19.8,4.48-8.59,6.67-18.79,6.55-30.61l4.95,1.57h-54.11v-13.87h64.17v13.87c0,14.4-2.91,26.86-8.74,37.36-5.83,10.5-13.82,18.62-24,24.34-10.18,5.72-21.86,8.58-35.06,8.58-14.74,0-27.64-3.55-38.69-10.67-11.05-7.12-19.65-17.19-25.78-30.2-6.13-13.01-9.2-28.31-9.2-45.9,0-13.25,1.76-25.22,5.28-35.88,3.52-10.67,8.51-19.81,14.98-27.39,6.46-7.59,14.12-13.4,22.97-17.45,8.86-4.05,18.65-6.06,29.37-6.06,9.23,0,17.69,1.45,25.36,4.37,7.67,2.91,14.43,6.91,20.29,12,5.86,5.09,10.67,10.95,14.44,17.57,3.76,6.63,6.31,13.68,7.63,21.16h-15.85Z"/>
      <path class="cls-1" d="M1187.41,498.15v-126.7h14.28v19.47h1.32c2.53-6.55,6.75-11.71,12.66-15.48,5.91-3.76,13.01-5.65,21.32-5.65,8.74,0,15.93,2.05,21.57,6.14,5.64,4.1,9.86,9.72,12.66,16.88h1.07c2.86-7.04,7.52-12.64,13.98-16.79,6.46-4.15,14.31-6.23,23.55-6.23,11.77,0,21.07,3.7,27.89,11.09,6.82,7.4,10.23,18.2,10.23,32.38v84.89h-14.69v-84.89c0-10.01-2.56-17.51-7.67-22.51-5.12-5-11.85-7.51-20.21-7.51-9.68,0-17.13,2.97-22.36,8.91-5.23,5.94-7.84,13.48-7.84,22.6v83.4h-15.01v-86.2c0-8.58-2.39-15.51-7.17-20.79-4.78-5.28-11.53-7.92-20.22-7.92-5.83,0-11.06,1.43-15.71,4.3-4.65,2.86-8.3,6.83-10.98,11.92-2.67,5.09-3.99,10.93-3.99,17.53v81.17h-14.69Z"/>
      <path class="cls-1" d="M1389.76,498.15v-168.94h14.76v66.41h1.32c1.65-3.79,4.04-7.7,7.14-11.72,3.11-4.01,7.21-7.39,12.28-10.1,5.09-2.72,11.52-4.09,19.27-4.09,10.39,0,19.52,2.74,27.38,8.21,7.87,5.48,14,13.12,18.4,22.94,4.4,9.82,6.61,21.24,6.61,34.27s-2.19,24.56-6.56,34.4c-4.37,9.85-10.47,17.52-18.31,23.02-7.84,5.5-16.93,8.25-27.27,8.25-7.7,0-14.12-1.38-19.26-4.13s-9.28-6.14-12.41-10.19c-3.14-4.04-5.56-7.99-7.27-11.83h-1.81v23.51h-14.27Zm14.52-63.27c0,10.23,1.53,19.29,4.57,27.18,3.06,7.89,7.46,14.08,13.2,18.55,5.74,4.49,12.72,6.73,20.91,6.73s15.53-2.33,21.37-6.97c5.83-4.65,10.25-10.94,13.28-18.85,3.02-7.92,4.54-16.8,4.54-26.65s-1.5-18.51-4.5-26.32c-2.99-7.81-7.41-14.01-13.23-18.6-5.84-4.59-12.98-6.89-21.45-6.89s-15.25,2.21-21,6.64c-5.74,4.43-10.14,10.54-13.16,18.31-3.02,7.79-4.53,16.73-4.53,26.86Z"/>
      <path class="cls-1" d="M1532.22,498.15v-168.94h15.42v77.46h95.85v-77.46h15.42v168.94h-15.42v-77.63h-95.85v77.63h-15.42Z"/>
    </g>
    <path class="cls-2" d="M767.28,147.04c-39.3-38.7-89.76-58.29-150.02-58.29h-52.84l-31.41,58.4h82.44c20.96,0,40.78,3.67,58.95,10.95,18.17,7.28,33.88,17.51,46.63,30.49,12.7,12.92,22.77,28.73,29.83,46.91,7.06,18.17,10.62,38.2,10.62,59.49,0,42.75-13.79,78.49-41.05,106.13-27.31,27.69-62.61,41.71-104.98,41.71h-33.69l-33.12,58.45h68.61c60.26,0,110.72-19.65,150.02-58.34,39.3-38.7,59.22-88.45,59.22-147.94s-19.92-109.25-59.22-147.94Z"/>
    <polygon class="cls-2" points="0 88.75 57.64 88.75 206.82 387.87 356.01 88.75 411.76 88.75 205.88 501.27 0 88.75"/>
    <polygon class="cls-2" points="336.52 451.6 515.99 88.75 460.24 88.75 280.88 451.6 336.52 451.6"/>
    <polygon class="cls-2" points="285.06 442.75 256.43 501.27 504.32 501.27 536.97 442.75 285.06 442.75"/>
    <rect class="cls-3" x="912" width=".75" height="590.02"/>
  </g>
</svg>