<?xml version="1.0" encoding="UTF-8"?>
<svg id="_Слой_2" data-name="Слой 2" xmlns="http://www.w3.org/2000/svg" viewBox="0 0 1012.3 583.6">
  <defs>
    <style>
      .cls-1 {
        fill: #fff;
      }

      .cls-2 {
        fill: #dd0b0b;
      }
    </style>
  </defs>
  <g id="_Слой_1-2" data-name="Слой 1">
    <rect class="cls-2" x="214.35" y="-214.35" width="583.6" height="1012.3" transform="translate(797.95 -214.35) rotate(90)"/>
    <path class="cls-1" d="M872.77,138.57c-40.69-40.07-92.95-60.36-155.36-60.36h-54.72l-32.53,60.48h85.37c21.71,0,42.23,3.8,61.04,11.34,18.82,7.54,35.08,18.14,48.29,31.57,13.15,13.38,23.58,29.76,30.89,48.57,7.31,18.82,11,39.56,11,61.61,0,44.27-14.28,81.28-42.51,109.9-28.28,28.68-64.84,43.19-108.71,43.19h-34.89l-34.3,60.53h71.05c62.4,0,114.66-20.35,155.36-60.42,40.69-40.07,61.33-91.59,61.33-153.2s-20.63-113.13-61.33-153.2Z"/>
    <polygon class="cls-1" points="78.21 78.21 137.89 78.21 292.38 387.97 446.87 78.21 504.61 78.21 291.41 505.39 78.21 78.21"/>
    <polygon class="cls-1" points="426.7 453.96 612.55 78.21 554.81 78.21 369.08 453.96 426.7 453.96"/>
    <polygon class="cls-1" points="373.4 444.79 343.75 505.39 600.46 505.39 634.27 444.79 373.4 444.79"/>
  </g>
</svg>